<?xml version="1.0" standalone="no"?>
<!DOCTYPE svg PUBLIC "-//W3C//DTD SVG 20010904//EN"
 "http://www.w3.org/TR/2001/REC-SVG-20010904/DTD/svg10.dtd">
<svg version="1.0" xmlns="http://www.w3.org/2000/svg"
 width="200.000000pt" height="200.000000pt" viewBox="0 0 200.000000 200.000000"
 preserveAspectRatio="xMidYMid meet">
<metadata>
Created by potrace 1.14, written by Peter Selinger 2001-2017
</metadata>
<g transform="translate(0.000000,200.000000) scale(0.100000,-0.100000)"
fill="#000000" stroke="none">
<path d="M595 1913 c-224 -19 -385 -155 -441 -373 -12 -48 -15 -91 -11 -165 5
-120 34 -205 105 -310 l47 -70 208 0 c115 0 212 2 217 5 4 3 19 28 33 55 l25
50 13 -27 c13 -29 29 -37 29 -15 0 6 7 50 15 97 9 47 18 101 20 120 3 19 7 46
9 60 3 14 8 41 10 60 17 110 45 273 49 276 3 3 8 -20 12 -52 4 -31 9 -66 11
-78 10 -54 53 -326 60 -371 3 -27 8 -59 10 -70 2 -11 11 -65 20 -120 9 -55 18
-107 19 -115 2 -8 4 -28 5 -45 1 -44 13 -19 50 110 18 61 34 112 35 114 2 2
15 -10 29 -25 24 -28 25 -28 26 -7 0 12 9 62 21 110 11 48 21 96 22 106 3 34
14 15 39 -65 23 -76 26 -81 35 -58 10 24 11 22 28 -31 l17 -55 187 0 186 1 18
25 c34 47 80 145 99 210 24 86 24 261 -2 335 -54 156 -155 254 -304 295 -177
49 -376 6 -497 -107 l-49 -45 -52 47 c-96 87 -236 137 -353 128z"/>
<path d="M881 1243 c-53 -322 -49 -309 -72 -255 -10 23 -22 42 -26 42 -4 0
-15 -13 -24 -28 l-16 -28 -209 -2 c-114 -2 -210 -5 -212 -7 -9 -9 226 -238
334 -325 125 -101 257 -194 297 -210 12 -5 16 -9 10 -9 -21 -1 -15 -17 7 -18
11 -1 18 2 15 7 -3 6 1 7 9 4 9 -3 16 -1 16 5 0 6 7 11 15 11 16 0 103 52 215
129 162 111 352 279 438 389 l34 42 -182 0 -181 0 -11 30 c-9 27 -12 29 -22
15 -10 -14 -16 -4 -35 60 -12 42 -24 75 -26 73 -2 -2 -13 -50 -25 -108 -12
-58 -24 -107 -27 -110 -3 -3 -13 6 -24 19 -11 13 -22 21 -25 19 -5 -5 -69
-244 -80 -295 -2 -12 -8 -32 -13 -45 -7 -19 -9 -13 -16 32 -4 30 -9 64 -11 75
-2 11 -6 40 -9 65 -3 25 -7 56 -10 70 -2 14 -7 45 -10 70 -12 90 -16 115 -20
140 -2 14 -7 45 -10 70 -3 25 -12 92 -21 150 -8 58 -17 120 -20 139 -2 19 -6
36 -8 38 -1 2 -22 -113 -45 -254z"/>
<path d="M1014 406 c-5 -14 -51 -16 -71 -3 -8 5 -13 3 -13 -7 0 -9 -6 -13 -14
-10 -9 3 -13 -2 -12 -16 0 -11 4 -20 9 -20 4 0 12 0 17 0 6 0 10 4 10 10 0 5
-8 7 -17 4 -15 -5 -15 -4 -3 4 8 6 18 8 24 5 5 -4 6 0 1 8 -7 11 -6 12 7 2 8
-7 18 -10 22 -6 4 4 16 -3 27 -17 20 -25 20 -25 9 -1 -9 17 -9 22 -1 16 12 -7
41 11 41 25 0 15 -31 20 -36 6z m7 -19 c-10 -9 -11 -8 -5 6 3 10 9 15 12 12 3
-3 0 -11 -7 -18z"/>
<path d="M1039 374 c-13 -14 -23 -27 -21 -30 9 -16 -2 -15 -16 2 -26 31 -58
27 -53 -8 2 -14 -42 -3 -52 13 -9 14 -13 14 -38 2 -16 -8 -29 -21 -29 -29 0
-8 -4 -12 -10 -9 -14 8 -61 -25 -53 -38 4 -7 0 -8 -13 -3 -10 4 -15 4 -11 0 7
-7 -30 -39 -45 -39 -5 0 -8 -4 -7 -9 0 -5 -13 -15 -29 -23 -16 -8 -34 -25 -40
-39 -7 -13 -16 -25 -22 -25 -5 -1 -13 -2 -18 -3 -4 0 -17 -10 -30 -22 l-22
-20 59 1 c33 0 63 4 68 8 4 5 -1 5 -12 2 -16 -6 -17 -5 -5 4 18 12 7 26 -12
15 -20 -13 -38 -13 -38 -2 0 6 7 8 15 4 8 -3 14 0 12 6 -2 13 41 19 49 6 3 -4
10 -8 17 -8 6 0 2 7 -9 16 -10 8 -14 13 -7 10 12 -7 12 11 0 31 -5 8 -1 11 13
8 11 -2 19 -1 19 3 -3 18 3 22 19 13 14 -7 19 -6 19 4 0 8 -7 11 -16 7 -14 -5
-14 -4 -1 10 11 11 17 12 22 4 4 -6 8 -7 8 -2 0 5 9 1 20 -9 11 -10 20 -13 20
-7 0 6 -9 17 -20 25 -17 12 -18 16 -6 20 9 4 18 2 21 -3 8 -13 25 -13 25 0 0
6 -6 10 -14 10 -8 0 -18 5 -22 12 -7 11 -4 10 44 -9 6 -3 12 0 12 6 0 6 -3 10
-7 10 -5 -1 -15 -1 -23 0 -13 1 -13 2 0 11 9 5 19 5 26 0 6 -6 14 -7 18 -3 4
4 4 -1 1 -12 -6 -16 -5 -17 3 -5 8 10 8 18 0 28 -7 8 -8 16 -1 23 11 11 46 1
38 -11 -6 -10 15 -8 33 3 6 5 12 4 12 -2 0 -8 8 -8 39 -2 2 1 -2 7 -8 15 -9
11 -8 15 4 20 10 3 13 2 10 -5 -12 -18 15 -37 48 -35 30 2 85 25 62 26 -6 0
-16 -5 -23 -12 -9 -9 -11 -7 -7 10 3 16 0 20 -13 15 -14 -4 -14 -3 -2 5 8 6
17 9 20 7 3 -2 6 5 6 16 0 10 -1 19 -1 19 -1 0 -12 -12 -26 -26z m-138 -41
c13 -17 13 -17 -6 -3 -11 8 -22 16 -24 17 -2 2 0 3 6 3 6 0 17 -8 24 -17z
m100 0 c13 -16 12 -17 -3 -4 -10 7 -18 15 -18 17 0 8 8 3 21 -13z m49 3 c0 -2
-7 -7 -16 -10 -8 -3 -12 -2 -9 4 6 10 25 14 25 6z m-394 -174 c-8 -9 -19 -13
-22 -9 -10 9 16 38 28 31 6 -4 4 -13 -6 -22z m-73 -45 c3 -8 -1 -14 -8 -14 -7
0 -11 6 -8 14 3 7 6 13 8 13 2 0 5 -6 8 -13z"/>
<path d="M1073 373 c4 -3 2 -12 -5 -20 -8 -11 -7 -12 5 -8 8 4 17 2 20 -2 6
-10 -7 -35 -17 -34 -3 1 -7 1 -8 0 -22 -6 -79 -5 -84 2 -3 5 -10 7 -15 3 -5
-3 -7 -10 -4 -15 4 -5 1 -9 -6 -9 -8 0 -8 -4 1 -15 8 -10 21 -13 33 -9 16 5
19 3 13 -11 -5 -15 -4 -16 9 -5 10 8 12 17 5 30 -7 14 -5 17 11 16 11 0 23 -7
28 -14 6 -9 16 -7 43 12 20 13 39 22 42 18 3 -3 6 0 6 6 0 7 5 12 11 12 8 0 7
-6 -2 -17 -12 -15 -12 -16 3 -10 10 3 20 2 23 -3 8 -13 25 -13 25 0 0 6 -7 10
-15 10 -8 0 -15 4 -15 9 0 10 -86 61 -103 61 -6 0 -7 -3 -4 -7z m44 -60 c-34
-25 -47 -29 -47 -13 0 6 3 9 8 9 29 -5 40 22 19 49 -6 7 3 5 20 -5 l31 -17
-31 -23z m-120 -35 c-19 -12 -26 -9 -24 11 1 15 4 17 19 8 13 -8 14 -13 5 -19z"/>
<path d="M850 320 c0 -5 4 -10 9 -10 6 0 9 -9 8 -20 -1 -18 -10 -25 -21 -17
-2 1 -13 -6 -25 -17 -18 -16 -23 -17 -38 -5 -16 13 -17 12 -4 -3 7 -10 19 -18
27 -18 7 0 16 -5 20 -12 5 -8 2 -9 -9 -5 -9 3 -19 2 -23 -4 -4 -7 -12 -5 -23
5 -19 18 -33 12 -24 -10 6 -17 -1 -18 -28 -4 -15 8 -19 8 -17 -2 2 -7 -2 -12
-9 -11 -11 3 -10 -27 2 -46 9 -16 -15 -24 -31 -10 -13 11 -14 9 -4 -13 10 -22
18 -25 61 -24 27 1 49 5 49 9 0 4 0 12 0 18 0 5 -4 7 -10 4 -5 -3 -10 -1 -10
5 0 6 -5 8 -10 5 -6 -4 -8 -10 -5 -15 3 -5 0 -12 -6 -16 -8 -5 -9 -3 -4 6 6 9
4 11 -5 5 -8 -5 -11 -4 -6 3 3 6 2 13 -4 17 -6 4 -8 11 -5 16 4 5 1 9 -6 9
-21 0 -1 13 25 15 14 2 30 -3 37 -11 7 -9 8 -14 1 -14 -6 0 -13 6 -15 13 -4 9
-6 9 -6 0 -1 -7 7 -17 17 -22 14 -8 18 -6 19 10 1 10 -3 19 -8 19 -6 0 -7 5
-4 11 4 6 13 8 21 5 7 -3 16 -1 19 5 4 5 10 7 15 4 10 -6 18 14 15 44 -2 22
-1 23 12 6 7 -11 14 -16 14 -12 2 9 6 25 9 35 1 4 2 11 1 16 -1 5 6 3 15 -5
16 -12 17 -12 12 3 -4 10 -2 15 6 14 19 -3 41 -28 44 -51 2 -17 0 -17 -11 4
-9 15 -17 20 -21 12 -4 -6 -2 -11 4 -11 6 0 9 -4 6 -9 -9 -13 16 -20 36 -9 13
6 16 5 12 -5 -5 -15 23 -44 33 -33 4 3 -1 12 -11 19 -16 12 -16 13 2 13 10 0
19 -5 20 -11 0 -5 3 -23 7 -40 6 -28 5 -28 -8 -11 -14 19 -38 15 -36 -7 0 -9
2 -9 6 1 2 6 10 12 16 12 5 0 7 -3 4 -7 -4 -3 1 -11 10 -18 14 -11 14 -12 -1
-18 -12 -5 -15 -3 -11 6 4 6 -1 3 -9 -7 -9 -11 -16 -17 -16 -13 0 4 -10 3 -21
-4 -17 -9 -20 -8 -13 3 6 9 3 9 -11 -2 -10 -8 -16 -10 -12 -4 4 7 0 14 -8 18
-16 6 -19 -2 -7 -20 9 -13 62 -14 62 -1 0 5 8 3 17 -4 9 -8 14 -9 10 -3 -4 7
0 14 8 17 9 4 12 1 8 -9 -3 -7 0 -14 7 -14 6 0 8 5 5 10 -3 6 -2 10 3 10 4 0
8 15 7 33 0 17 4 35 10 39 6 5 4 8 -5 8 -13 0 -13 1 0 10 10 6 11 10 3 10 -21
0 -15 16 6 17 14 1 19 -4 16 -17 -2 -11 0 -22 5 -25 5 -3 7 -12 3 -20 -3 -8
-1 -15 5 -15 5 0 9 -12 8 -27 0 -14 4 -28 10 -30 6 -2 10 10 10 31 -1 19 -5
32 -10 29 -5 -4 -6 0 -1 7 6 9 4 11 -4 5 -10 -6 -11 -3 -2 13 9 17 8 23 -5 30
-11 6 -13 11 -5 16 17 11 13 29 -5 22 -9 -3 -12 -2 -9 5 4 6 13 8 20 5 7 -2
17 0 22 5 5 5 22 12 36 14 21 4 29 0 42 -22 11 -20 14 -22 10 -7 -4 14 0 24
10 28 9 3 13 2 10 -3 -3 -5 -1 -12 5 -16 5 -3 10 -1 10 4 0 6 5 11 11 11 5 0
7 -5 3 -12 -5 -7 -3 -8 6 -3 9 5 11 4 6 -4 -4 -6 -12 -9 -17 -6 -5 4 -9 1 -9
-4 0 -10 15 -15 23 -8 2 1 11 -6 21 -16 10 -9 22 -15 27 -12 5 4 9 1 9 -6 0
-7 3 -9 6 -6 4 3 16 2 27 -4 19 -11 18 -12 -7 -29 -23 -14 -25 -18 -11 -24 9
-3 13 -2 10 3 -10 17 12 21 25 6 10 -12 16 -13 26 -4 8 6 14 10 15 8 6 -31 6
-39 -2 -39 -5 0 -9 5 -9 12 0 6 -6 3 -14 -8 -8 -10 -18 -16 -22 -11 -4 4 -2 7
4 7 7 0 12 5 12 10 0 14 -23 8 -37 -10 -6 -8 -15 -12 -19 -7 -4 4 -2 7 4 7 7
0 12 5 12 11 0 5 -4 7 -10 4 -5 -3 -10 -1 -10 5 0 6 -5 8 -10 5 -6 -4 -8 -10
-5 -15 3 -5 0 -12 -6 -16 -7 -4 -9 -3 -5 4 4 7 -1 10 -14 7 -11 -2 -20 1 -20
7 0 7 -7 3 -16 -8 -8 -10 -13 -13 -9 -6 4 7 1 20 -7 29 -11 14 -11 16 0 9 12
-7 12 -4 2 14 -7 12 -8 20 -3 17 5 -3 10 4 10 16 2 17 0 19 -7 7 -5 -8 -10
-11 -10 -6 0 5 -7 3 -15 -4 -15 -12 -11 -35 4 -25 5 2 9 -7 9 -20 0 -14 -4
-28 -9 -31 -5 -3 -9 0 -9 7 0 9 -4 9 -15 -1 -8 -6 -20 -8 -27 -4 -19 12 -38
14 -38 3 0 -5 5 -9 11 -9 5 0 8 -4 5 -8 -6 -10 55 -9 72 1 7 5 12 4 12 -2 0
-12 27 -10 48 2 6 5 12 4 12 0 0 -14 183 -10 187 4 3 7 -7 18 -21 24 -14 7
-23 16 -19 22 3 6 1 7 -4 4 -6 -4 -14 0 -17 8 -3 8 -11 14 -18 13 -7 -2 -12 3
-10 10 1 8 -2 11 -8 7 -5 -3 -10 -1 -10 6 0 7 -3 9 -6 6 -4 -3 -15 5 -26 18
-11 14 -23 23 -28 20 -5 -3 -12 1 -17 8 -12 20 -49 38 -66 31 -8 -3 -18 0 -22
5 -3 6 -11 9 -16 5 -5 -3 -16 -1 -24 6 -10 8 -17 6 -29 -12 -9 -12 -16 -19
-16 -15 0 4 -9 3 -19 -3 -16 -8 -22 -6 -30 7 -5 10 -13 14 -18 9 -4 -5 -2 -11
5 -13 8 -3 4 -11 -12 -24 -29 -23 -40 -24 -32 -3 3 9 2 12 -5 9 -14 -9 -49 24
-43 40 4 9 -5 12 -31 10 -24 -1 -39 3 -42 11 -6 16 -23 19 -23 4z m294 -28 c3
-5 -1 -9 -9 -9 -8 0 -12 4 -9 9 3 4 7 8 9 8 2 0 6 -4 9 -8z m-90 -45 c-3 -8
-12 -14 -21 -14 -13 0 -13 2 3 14 22 16 25 16 18 0z m238 -12 c3 3 11 -1 17
-9 10 -11 9 -14 -2 -12 -8 1 -21 7 -29 14 -8 6 -19 8 -23 4 -5 -4 -5 -1 -1 6
6 9 11 10 20 3 7 -6 15 -9 18 -6z m-528 -45 c-6 -6 -10 -3 -10 10 0 13 4 16
10 10 7 -7 7 -13 0 -20z m626 -32 c0 -4 -4 -8 -9 -8 -6 0 -12 4 -15 8 -3 5 1
9 9 9 8 0 15 -4 15 -9z m-683 -41 c0 -8 -6 -14 -14 -14 -9 0 -10 4 -2 14 14
16 16 16 16 0z m738 -9 c5 -4 0 -6 -12 -6 -13 1 -19 7 -16 15 3 8 8 10 12 6 3
-4 10 -11 16 -15z"/>
<path d="M907 275 c-4 -8 -11 -14 -16 -13 -5 2 -10 -1 -11 -7 -3 -19 -22 -35
-34 -28 -6 3 -8 3 -4 -2 10 -11 -11 -47 -23 -40 -5 4 -9 1 -9 -5 0 -7 -6 -10
-13 -7 -11 4 -14 -21 -8 -69 0 -6 22 -10 53 -10 46 2 53 4 53 21 0 13 6 19 15
17 46 -11 58 -10 76 4 10 8 14 13 7 10 -16 -9 -28 13 -14 27 14 14 -15 48 -34
41 -20 -8 -47 36 -33 53 6 7 9 16 6 19 -3 3 -8 -2 -11 -11z m23 -79 c0 -5 6
-3 14 3 10 9 16 8 26 -4 10 -12 9 -16 -4 -21 -13 -5 -14 -9 -5 -20 6 -8 9 -15
5 -15 -23 -5 -33 -5 -46 2 -8 4 -26 -1 -44 -14 -37 -26 -77 -31 -68 -9 3 9 1
13 -5 9 -7 -4 -10 0 -9 10 2 10 7 18 12 17 5 0 18 11 29 25 11 14 28 32 38 40
11 8 16 20 12 30 -3 9 6 3 19 -14 14 -16 25 -34 26 -39z"/>
<path d="M855 189 c-22 -24 -43 -43 -47 -41 -5 1 -3 -7 4 -18 7 -11 14 -16 16
-10 2 5 8 10 13 10 6 0 7 -5 3 -12 -4 -6 8 -1 27 13 37 26 59 34 59 21 0 -5 7
-9 15 -9 10 0 12 4 6 10 -12 12 -2 39 12 30 6 -4 7 -1 2 6 -5 9 -10 10 -18 2
-8 -8 -17 -4 -32 15 l-21 26 -39 -43z m60 4 c8 -22 7 -28 -2 -28 -5 -1 -19 -7
-33 -15 -14 -7 -34 -14 -44 -15 -17 -2 -17 -1 -3 10 9 7 14 14 11 17 -5 6 44
48 56 48 4 0 11 -8 15 -17z"/>
<path d="M875 186 c-18 -13 -32 -51 -14 -40 5 3 6 10 3 16 -5 7 -1 9 9 5 9 -3
19 -2 22 4 4 5 12 6 18 2 7 -4 6 0 -2 10 -16 20 -13 20 -36 3z"/>
<path d="M1108 248 c-19 -19 -22 -30 -11 -42 4 -3 8 -14 10 -24 2 -9 5 -24 7
-32 2 -8 5 -13 8 -10 3 3 12 -1 21 -9 13 -10 20 -11 30 -2 8 6 18 7 22 3 5 -4
2 4 -7 18 -12 20 -13 29 -4 42 17 24 51 27 50 6 -2 -21 7 -23 25 -5 11 9 12 9
7 0 -4 -8 -2 -11 6 -10 7 2 9 2 5 -1 -4 -2 0 -10 10 -18 13 -11 14 -14 3 -12
-8 2 -14 -3 -12 -10 1 -8 -2 -11 -7 -7 -6 3 -7 13 -4 23 6 15 5 16 -12 2 -11
-9 -16 -10 -11 -2 4 6 3 12 -3 12 -5 0 -9 -9 -8 -20 1 -10 3 -17 5 -15 3 2 12
0 22 -5 22 -12 56 21 44 42 -6 11 -5 11 8 0 10 -8 19 -9 22 -3 4 5 2 12 -4 16
-5 3 -10 4 -10 0 0 -3 -13 1 -30 10 -16 9 -30 12 -30 8 0 -3 -13 8 -29 26 -22
24 -29 28 -28 14 1 -12 -4 -17 -15 -15 -12 2 -16 -3 -13 -17 3 -14 -1 -18 -12
-14 -12 5 -12 7 -1 14 7 5 9 9 4 9 -5 0 -4 6 2 13 27 32 -28 47 -60 15z m46
-23 c-15 -23 -15 -25 0 -31 15 -6 15 -7 0 -19 -12 -8 -14 -14 -6 -19 7 -4 12
-1 12 6 0 9 3 9 10 -2 6 -9 6 -18 0 -24 -9 -9 -45 26 -50 49 -1 6 -7 17 -13
25 -10 13 -10 13 6 1 10 -8 17 -9 17 -3 0 6 -4 14 -10 17 -5 3 -10 11 -10 18
0 6 7 2 16 -9 8 -10 12 -13 8 -5 -3 7 -1 17 7 21 22 14 30 0 13 -25z"/>
<path d="M1126 191 c-4 -5 -2 -12 3 -15 5 -4 12 -2 15 3 4 5 2 12 -3 15 -5 4
-12 2 -15 -3z"/>
<path d="M595 160 c-3 -5 -1 -10 4 -10 6 0 11 5 11 10 0 6 -2 10 -4 10 -3 0
-8 -4 -11 -10z"/>
<path d="M714 153 c3 -16 16 -22 16 -8 0 3 0 10 0 15 0 6 -4 10 -9 10 -5 0 -8
-8 -7 -17z"/>
</g>
</svg>
